# xmcd CD database file
#
# Track frame offsets:
#	150
#	16656
#	31030
#	43040
#	58148
#	70508
#	85010
#	98182
#	113807
#	125142
#	138146
#	158896
#	170948
#	183449
#	196891
#	212447
#	223405
#	240990
#	255542
#	272319
#	285415
#	310511
#	330604
#	342623
#
# Disc length: 4779 seconds
#
# Revision: 1
# Processed by: cddbd v1.5.1PL2 Copyright (c) Steve Scherf et al.
# Submitted via: Feurio! 1.68 - http://www.feurio.com
#
DISCID=5012a918
DTITLE=JOHN LEE HOOKER - Bye, John Lee
DYEAR=1900
DGENRE=Blues
TTITLE0=John Lee Hooker - IBelieve I'll Lose My Mind
TTITLE1=John Lee Hooker - Sittin' Here Thinkin'
TTITLE2=John Lee Hooker - Walkin' The Boogie
TTITLE3=John Lee Hooker - I Bought You A Brand New Home
TTITLE4=John Lee Hooker - Leave My Wife Alone
TTITLE5=John Lee Hooker - How Long
TTITLE6=John Lee Hooker - Wandering Blues
TTITLE7=John Lee Hooker - Teasin' Me
TTITLE8=John Lee Hooker - Solid Sender
TTITLE9=John Lee Hooker - Stella Mea
TTITLE10=John Lee Hooker - Can't You See What You're Doin' To Me
TTITLE11=John Lee Hooker - High Priced Woman
TTITLE12=John Lee Hooker - Hobo Blues
TTITLE13=John Lee Hooker - Time Is Marching
TTITLE14=John Lee Hooker - How Many More Years
TTITLE15=John Lee Hooker - Boom Boom
TTITLE16=John Lee Hooker - Mean Mistreadin'
TTITLE17=John Lee Hooker - My Cryin' Day's Are Over
TTITLE18=John Lee Hooker - Goin' Mad Blues
TTITLE19=John Lee Hooker - Ground Hog Blues
TTITLE20=John Lee Hooker - I Don't Want To Go To Vietnam
TTITLE21=John Lee Hooker - Sad And Lonesome
TTITLE22=John Lee Hooker - Crawlin' King Snake
TTITLE23=John Lee Hooker - C. C. Rider
EXTD=
EXTT0=
EXTT1=
EXTT2=
EXTT3=
EXTT4=
EXTT5=
EXTT6=
EXTT7=
EXTT8=
EXTT9=
EXTT10=
EXTT11=
EXTT12=
EXTT13=
EXTT14=
EXTT15=
EXTT16=
EXTT17=
EXTT18=
EXTT19=
EXTT20=
EXTT21=
EXTT22=
EXTT23=
PLAYORDER=
